<svg fill="none" version="1.1" viewBox="0 0 50 49.916" xmlns="http://www.w3.org/2000/svg">
<g transform="translate(0 -.041992)" clip-path="url(#clip0)" fill="#dc1919">
<path d="m40.598 27.007c-4.1664-4.1663-9.7058-6.461-15.598-6.461-5.8921 0-11.432 2.2946-15.598 6.4609-3.8176 3.8178-6.0624 8.7889-6.4114 14.127h44.019c-0.3491-5.3385-2.5937-10.31-6.4114-14.127z"/>
<path d="m42.344 14.899c0.1702 0.0681 0.2427 0.2017 0.2706 0.2752 0.0279 0.0737 0.0626 0.2216-0.0194 0.3857l-1.5741 3.4443 2.6754 1.2219 1.5425-3.3775c0.4145-0.8476 0.4602-1.8369 0.1246-2.7196-0.339-0.8917-1.0415-1.6064-1.9273-1.9607-0.2204-0.0882-0.3412-0.3236-0.2904-0.5506l0.8485-1.8904-2.6831-1.2045-0.9192 2.0476-0.0233 0.0701c-0.572 1.7161 0.2957 3.5867 1.9752 4.2585z"/>
<path d="m31.563 6.4192c0.1702 0.06813 0.2427 0.20166 0.2706 0.27529 0.028 0.07353 0.0627 0.22147-0.0194 0.38559l-1.5742 3.4444 2.6754 1.2219 1.5424-3.3774c0.4147-0.84755 0.4604-1.8371 0.1248-2.7197-0.339-0.89186-1.0415-1.6065-1.9273-1.9608-0.2205-0.08814-0.3414-0.32343-0.2904-0.55039l0.8484-1.8907-2.6831-1.2044-0.919 2.0476-0.0234 0.0699c-0.572 1.7162 0.2955 3.5868 1.9752 4.2587z"/>
<path d="m17.344 6.4183c0.1702 0.06804 0.2427 0.20166 0.2706 0.27529 0.028 0.07353 0.0627 0.22147-0.0193 0.38539l-1.5742 3.4446 2.6754 1.2218 1.5425-3.3775c0.4145-0.84755 0.4602-1.8369 0.1246-2.7194-0.339-0.89186-1.0414-1.6065-1.9272-1.9609-0.2205-0.08814-0.3412-0.32343-0.2905-0.55039l0.8485-1.8906-2.6831-1.2045-0.9191 2.0476-0.0233 0.07c-0.572 1.7161 0.2954 3.5867 1.9751 4.2586z"/>
<path d="m6.5628 14.359c0.1702 0.0682 0.24265 0.2017 0.27059 0.2753 0.02794 0.0737 0.06274 0.2215-0.01932 0.3856l-1.5741 3.4443 2.6753 1.2219 1.5426-3.3775c0.41451-0.8475 0.4603-1.8369 0.12471-2.7195-0.33902-0.8918-1.0416-1.6065-1.9274-1.9609-0.22049-0.0881-0.34127-0.3234-0.29049-0.5503l0.84863-1.8906-2.6831-1.2045-0.91912 2.0476-0.02333 0.07c-0.57206 1.7161 0.29559 3.5867 1.9751 4.2586z"/>
<path d="m27.941 17.776v-0.1715c0-1.6243-1.3169-2.9412-2.9412-2.9412s-2.9412 1.3169-2.9412 2.9412v0.1715c0.9693-0.1128 1.9506-0.1715 2.9412-0.1715 0.9905 0 1.972 0.0587 2.9412 0.1715z"/>
<path d="m0 44.076h50v5.8823h-50z"/>
</g>
<defs>
<clipPath id="clip0">
<rect width="50" height="50" fill="#fff"/>
</clipPath>
</defs>
</svg>
