<svg fill="none" version="1.1" viewBox="0 0 50 43.864" xmlns="http://www.w3.org/2000/svg">
<g fill="#dc1919">
<path d="m16.465 7.544v-1.172c0-1.8982 1.5443-3.4423 3.4423-3.4423h10.186c1.898 0 3.4423 1.5441 3.4423 3.4423v1.172h2.9296v-1.172c0-3.5136-2.8584-6.372-6.3719-6.372h-10.186c-3.5135 0-6.3719 2.8584-6.3719 6.372v1.172z"/>
<path d="m44.821 26.355-14.457 5.1189v0.4669c0 2.9577-2.4062 5.3639-5.3638 5.3639-2.9577 0-5.3639-2.4062-5.3639-5.3639v-0.4669l-14.457-5.1189c-1.3015-0.4608-2.487-1.1316-3.527-1.9636v19.473h46.696v-19.473c-1.04 0.832-2.2256 1.5029-3.527 1.9637z"/>
<path d="m0 10.474v4.4082c0 3.9148 2.4666 7.4048 6.1568 8.7116l13.479 4.7727v-4.0172h10.728v4.0171l13.479-4.7727c3.6902-1.3067 6.1568-4.7967 6.1568-8.7115v-4.4082z"/>
<path d="m27.434 27.279h-4.8683v4.6622c0 1.3422 1.0919 2.4342 2.4341 2.4342s2.4342-1.092 2.4342-2.4342z"/>
</g>
</svg>
