<svg fill="none" version="1.1" viewBox="0 0 50 42.077" xmlns="http://www.w3.org/2000/svg">
<path d="m30.173 7.222c2.3119 1.4495 3.933 3.9024 4.2282 6.7497 0.9428 0.4405 1.9892 0.6938 3.0987 0.6938 4.0503 0 7.3331-3.2828 7.3331-7.3324 0-4.0503-3.2828-7.3331-7.3331-7.3331-4.0116 0.00125-7.2657 3.2254-7.3269 7.222zm-4.804 15.014c4.0503 0 7.3331-3.2834 7.3331-7.333 0-4.0497-3.2835-7.3325-7.3331-7.3325-4.0497 0-7.3344 3.2834-7.3344 7.3331s3.2847 7.3324 7.3344 7.3324zm3.1105 0.4999h-6.2223c-5.1773 0-9.3892 4.2125-9.3892 9.3897v7.6095l0.0194 0.1192 0.5241 0.1641c4.9408 1.5437 9.2332 2.0585 12.766 2.0585 6.9006 0 10.9-1.9674 11.147-2.0928l0.4898-0.2477h0.0524v-7.6108c0.0019-5.1772-4.21-9.3897-9.3873-9.3897zm12.132-7.5702h-6.1743c-0.0668 2.4703-1.1213 4.6948-2.7892 6.2947 4.6018 1.3684 7.9689 5.6359 7.9689 10.676v2.345c6.0963-0.2234 9.6094-1.9512 9.8409-2.0673l0.4898-0.2483h0.0524v-7.612c0-5.1766-4.2119-9.3885-9.3885-9.3885zm-28.11-0.4992c1.4345 0 2.7692-0.4187 3.8999-1.1319 0.3594-2.3444 1.6161-4.3929 3.4113-5.7881 0.0075-0.1373 0.0206-0.2733 0.0206-0.4119 0-4.0503-3.2834-7.333-7.3318-7.333-4.051 0-7.3331 3.2828-7.3331 7.333 0 4.0485 3.2822 7.3319 7.3331 7.3319zm6.5855 6.7939c-1.6598-1.5918-2.7106-3.8044-2.7873-6.2598-0.229-0.0168-0.4555-0.0349-0.6889-0.0349h-6.2218c-5.1772 0-9.3891 4.2119-9.3891 9.3885v7.6107l0.019344 0.1173 0.52415 0.1654c3.9636 1.2373 7.5009 1.8077 10.573 1.9874v-2.2982c0.0013-5.0405 3.3671-9.3067 7.9702-10.676z" fill="#dc1919"/>
</svg>
