<svg fill="none" version="1.1" viewBox="0 0 219 63.553" xmlns="http://www.w3.org/2000/svg">
<g clip-path="url(#clip0)">
<path d="m80.008 13.263 29.529-13.263 4e-3 7.6356-29.506 13.277z" fill="#dc1919"/>
<path d="m109.54 12.476 29.501 13.272 5e-3 7.7369-29.506-13.249-29.497 13.24v-7.7277z" fill="#dc1919"/>
<g fill="#fff">
<path d="m54.582 60.606v-9.2566h4.6467c0.9609 0.0182 1.8756 0.4158 2.5443 1.1061 0.6688 0.6903 1.0372 1.6171 1.0248 2.5781v1.6487 0.2073c-0.0307 0.95-0.4126 1.8549-1.0718 2.5397-0.6593 0.6848-1.5491 1.1008-2.4973 1.1675h-4.6467zm-2.6619 2.579h2.6619 4.9783c2.7632 0 5.9086-2.5836 5.9086-5.7658v-0.3224-0.8152-0.8381-0.9211c-0.0327-1.5407-0.6731-3.0061-1.7816-4.0766-1.1085-1.0706-2.5953-1.6595-4.1362-1.6385h-7.631z"/>
<path d="m131.49 60.942c2.689 0 4.872-1.6579 4.872-4.9599s-2.201-4.9645-4.872-4.9645-4.877 1.5336-4.877 4.9645c0 3.431 2.183 4.9599 4.877 4.9599zm0 2.6112c4.172 0 7.552-2.5283 7.552-7.5711s-3.38-7.5757-7.552-7.5757c-4.173 0-7.558 2.3395-7.558 7.5757s3.385 7.5711 7.558 7.5711z" clip-rule="evenodd" fill-rule="evenodd"/>
<path d="m144.57 51.349v3.9145h3.905 0.272c0.519 0 1.017-0.2062 1.384-0.5733 0.367-0.367 0.573-0.8649 0.573-1.384s-0.206-1.0169-0.573-1.3839c-0.367-0.3671-0.865-0.5733-1.384-0.5733zm-2.634-2.5329h7.083 0.17c1.165 0.0747 2.255 0.5997 3.04 1.464 0.785 0.8642 1.203 1.9999 1.165 3.1667s-0.528 2.2731-1.367 3.0849-1.961 1.2654-3.128 1.2647h-0.12c-1.064 0.0645-3.081 0-4.209 0v5.4112h-2.639z"/>
<path d="m38.873 48.812h2.6756c-0.0322 3.2237 0.0507 6.6546-0.0368 9.8691-0.0875 3.5415-3.2237 4.854-6.3645 4.8724-3.0027 0-6.1619-1.5105-6.2632-4.8724-0.1198-3.2836 0-6.581-0.0553-9.8691h2.6665c0 3.0072-0.0323 5.9869 0 9.0125 0.0322 2.3027 1.552 3.1086 3.6382 3.1224s3.7993-0.8059 3.7256-3.1776c0.0231-2.9843 0-5.9869 0-8.9527"/>
<path d="m0 48.807h12.761l-1.1836 2.5421h-3.8546l0.00921 11.84-2.625 0.0138 0.0046-11.854h-5.1119z"/>
<path d="m17.643 56.548h3.8546l-1.8974-4.2185zm-5.9869 6.6454 6.6777-14.387h2.4269l6.4475 14.387h-2.7218l-1.8421-4.0112h-6.2171l-1.8421 3.9882z"/>
<path d="m67.772 63.198-0.0046-14.392 11.38-0.0046-0.0092 2.5467h-8.727v3.2007l7.9948-0.0046 0.0184 2.5927h-8.0132v3.4724h8.529l-1.202 2.5882z"/>
<path d="m80.896 48.821 2.9658-0.0184 4.7389 10.905 4.8079-10.901 2.9566 0.0184-6.4566 14.368h-2.5467z"/>
<path d="m98.097 48.807h11.44v2.5421h-8.769v3.2007l8.101 0.0046 9e-3 2.5789-8.114 0.0277 4e-3 3.4493h8.658l-1.197 2.5836h-10.132z"/>
<path d="m112.44 63.194-5e-3 -14.392 2.694-0.0092v11.817h8.133l-1.206 2.5974z"/>
<path d="m156.3 48.807h3.223l4.983 11.085 5.144-11.085h3.146v14.387h-2.667v-9.4593l-4.135 9.4593h-2.612l-4.416-9.8277v9.8277h-2.666z"/>
<path d="m176.4 48.807h11.385v2.5421h-8.755v3.2007h8.009v2.5881h-8.009v3.4724l8.755 0.0231-1.188 2.5605h-10.197z"/>
<path d="m190.75 63.194v-14.387h2.569l8.124 10.399v-10.399h2.643v14.387h-2.643l-8.124-10.426v10.426z"/>
<path d="m206.2 48.807 12.798 0.0138-1.188 2.5283h-3.85l9e-3 11.845h-2.689v-11.845h-5.071z"/>
</g>
</g>
<defs>
<clipPath id="clip0">
<rect width="219" height="63.553" fill="#fff"/>
</clipPath>
</defs>
</svg>
