<svg width="431" height="334" viewBox="0 0 431 334" fill="none" xmlns="http://www.w3.org/2000/svg">
<g clip-path="url(#clip0)">
<path d="M18.8367 291.992H438.927" stroke="#C6C6C6" stroke-width="0.17515" stroke-miterlimit="22.93" stroke-dasharray="1.91 1.91"/>
<path d="M53.4448 55.1166V333.2" stroke="#C6C6C6" stroke-width="0.17515" stroke-miterlimit="22.93" stroke-dasharray="1.91 1.91"/>
<path d="M404.199 55.1166V333.2" stroke="#C6C6C6" stroke-width="0.17515" stroke-miterlimit="22.93" stroke-dasharray="1.91 1.91"/>
<path d="M18.8367 89.8282H438.927" stroke="#C6C6C6" stroke-width="0.17515" stroke-miterlimit="22.93" stroke-dasharray="1.91 1.91"/>
<path d="M228.882 55.1166V333.2" stroke="#C6C6C6" stroke-width="0.17515" stroke-miterlimit="22.93" stroke-dasharray="1.91 1.91"/>
<path d="M18.8367 166.99H438.927" stroke="#C6C6C6" stroke-width="0.17515" stroke-miterlimit="22.93" stroke-dasharray="1.91 1.91"/>
<path d="M18.8367 135.773H438.927" stroke="#C6C6C6" stroke-width="0.17515" stroke-miterlimit="22.93" stroke-dasharray="1.91 1.91"/>
<path d="M18.8367 213.827H438.927" stroke="#C6C6C6" stroke-width="0.17515" stroke-miterlimit="22.93" stroke-dasharray="1.91 1.91"/>
<path d="M429.206 77.3607L0.0318604 269.238" stroke="#C6C6C6" stroke-width="0.17515" stroke-miterlimit="22.93" stroke-dasharray="1.91 1.91"/>
<path d="M429.206 124.206L0.0318604 316.091" stroke="#C6C6C6" stroke-width="0.17515" stroke-miterlimit="22.93" stroke-dasharray="1.91 1.91"/>
<path d="M28.3744 77.3607L457.549 269.238" stroke="#C6C6C6" stroke-width="0.17515" stroke-miterlimit="22.93" stroke-dasharray="1.91 1.91"/>
<path d="M28.3744 124.206L457.549 316.091" stroke="#C6C6C6" stroke-width="0.17515" stroke-miterlimit="22.93" stroke-dasharray="1.91 1.91"/>
<path d="M429.207 0.0814209L0.0325928 191.959" stroke="#C6C6C6" stroke-width="0.17515" stroke-miterlimit="22.93" stroke-dasharray="1.91 1.91"/>
<path d="M429.206 45.8177L0.0318604 237.703" stroke="#C6C6C6" stroke-width="0.17515" stroke-miterlimit="22.93" stroke-dasharray="1.91 1.91"/>
<path d="M53.3651 168.662L228.858 89.8203L228.882 135.2L53.5164 214.097L53.3651 168.662Z" stroke="#DC1919" stroke-width="0.17515" stroke-miterlimit="22.93"/>
<path d="M228.866 167.117L404.199 246.007L404.215 291.992L228.858 213.238L53.5483 291.912V246.007L228.866 167.117Z" stroke="#DC1919" stroke-width="0.17515" stroke-miterlimit="22.93"/>
</g>
<defs>
<clipPath id="clip0">
<rect width="457.58" height="333.2" fill="white"/>
</clipPath>
</defs>
</svg>
