<svg width="219" height="64" viewBox="0 0 219 64" fill="none" xmlns="http://www.w3.org/2000/svg">
<g clip-path="url(#clip0)">
<path d="M80.0077 13.2632L109.537 0L109.541 7.63557L80.0353 20.9126L80.0077 13.2632Z" fill="#DC1919"/>
<path d="M109.537 12.4757L139.038 25.7482L139.043 33.4851L109.537 20.2357L80.04 33.4759V25.7482L109.537 12.4757Z" fill="#DC1919"/>
<path d="M54.5819 60.6056V51.349H55.0839H59.2286C60.1895 51.3672 61.1042 51.7648 61.7729 52.4551C62.4417 53.1454 62.8101 54.0722 62.7977 55.0332V56.6819C62.7977 56.751 62.7977 56.8201 62.7977 56.8892C62.767 57.8392 62.3851 58.7441 61.7259 59.4289C61.0666 60.1137 60.1768 60.5297 59.2286 60.5964H54.5819V60.6056ZM51.92 63.1846C52.8089 63.1846 53.6977 63.1846 54.5819 63.1846H59.5602C62.3234 63.1846 65.4688 60.601 65.4688 57.4188C65.4688 57.3082 65.4688 57.2023 65.4688 57.0964V56.2812C65.4688 56.0003 65.4688 55.724 65.4688 55.4431V54.522C65.4361 52.9813 64.7957 51.5159 63.6872 50.4454C62.5787 49.3748 61.0919 48.7859 59.551 48.8069H54.5819H51.92V63.1846Z" fill="black"/>
<path fill-rule="evenodd" clip-rule="evenodd" d="M131.486 60.9418C134.175 60.9418 136.358 59.2839 136.358 55.9819C136.358 52.6799 134.157 51.0174 131.486 51.0174C128.815 51.0174 126.609 52.551 126.609 55.9819C126.609 59.4129 128.792 60.9418 131.486 60.9418ZM131.486 63.553C135.658 63.553 139.038 61.0247 139.038 55.9819C139.038 50.9391 135.658 48.4062 131.486 48.4062C127.313 48.4062 123.928 50.7457 123.928 55.9819C123.928 61.2181 127.313 63.553 131.486 63.553Z" fill="black"/>
<path d="M144.574 51.349V55.2635C146.103 55.2635 147.429 55.2635 148.479 55.2635H148.751C149.27 55.2635 149.768 55.0573 150.135 54.6902C150.502 54.3232 150.708 53.8253 150.708 53.3062C150.708 52.7871 150.502 52.2893 150.135 51.9223C149.768 51.5552 149.27 51.349 148.751 51.349H144.574ZM141.94 48.8161C144.574 48.8161 146.545 48.8161 149.023 48.8161H149.193C150.358 48.8908 151.448 49.4158 152.233 50.2801C153.018 51.1443 153.436 52.28 153.398 53.4468C153.36 54.6136 152.87 55.7199 152.031 56.5317C151.192 57.3435 150.07 57.7971 148.903 57.7964H148.783C147.719 57.8609 145.702 57.7964 144.574 57.7964V63.2076H141.935L141.94 48.8161Z" fill="black"/>
<path d="M38.8733 48.8115H41.5489C41.5167 52.0352 41.5996 55.4661 41.5121 58.6806C41.4246 62.2221 38.2884 63.5346 35.1476 63.553C32.1449 63.553 28.9857 62.0425 28.8844 58.6806C28.7646 55.397 28.8844 52.0996 28.8291 48.8115H31.4956C31.4956 51.8187 31.4633 54.7984 31.4956 57.824C31.5278 60.1267 33.0476 60.9326 35.1338 60.9464C37.22 60.9602 38.9331 60.1405 38.8594 57.7688C38.8825 54.7845 38.8594 51.7819 38.8594 48.8161" fill="black"/>
<path d="M0 48.8069H12.7613L11.5777 51.349H7.72307L7.73228 63.1892L5.10727 63.203L5.11187 51.349H0V48.8069Z" fill="black"/>
<path d="M17.6429 56.5484H21.4975L19.6001 52.3299L17.6429 56.5484ZM11.656 63.1938L18.3337 48.8069H20.7606L27.2081 63.1938H24.4863L22.6442 59.1826H16.4271L14.585 63.1708L11.656 63.1938Z" fill="black"/>
<path d="M67.7715 63.1984L67.7669 48.8069L79.1465 48.8023L79.1373 51.349H70.4103V54.5497L78.4051 54.5451L78.4235 57.1378H70.4103V60.6102H78.9393L77.7373 63.1984H67.7715Z" fill="black"/>
<path d="M80.8965 48.8207L83.8623 48.8023L88.6012 59.7076L93.4091 48.8069L96.3657 48.8253L89.9091 63.1938H87.3624L80.8965 48.8207Z" fill="black"/>
<path d="M98.0973 48.8069H109.537V51.349H100.768V54.5497L108.869 54.5543L108.878 57.1332L100.764 57.1609L100.768 60.6102H109.426L108.229 63.1938H98.0973V48.8069Z" fill="black"/>
<path d="M112.443 63.1938L112.438 48.8023L115.132 48.7931V60.6102H123.265L122.059 63.2076L112.443 63.1938Z" fill="black"/>
<path d="M156.304 48.8069H159.527L164.51 59.8918L169.654 48.8069H172.8V63.1938H170.133V53.7345L165.998 63.1938H163.386L158.97 53.3661V63.1938H156.304V48.8069Z" fill="black"/>
<path d="M176.396 48.8069H187.781V51.349H179.026V54.5497H187.035V57.1378H179.026V60.6102L187.781 60.6333L186.593 63.1938H176.396V48.8069Z" fill="black"/>
<path d="M190.747 63.1938V48.8069H193.316L201.44 59.2056V48.8069H204.083V63.1938H201.44L193.316 52.7674V63.1938H190.747Z" fill="black"/>
<path d="M206.202 48.8069L219 48.8207L217.812 51.349H213.962L213.971 63.1938H211.282V51.349H206.211L206.202 48.8069Z" fill="black"/>
</g>
<defs>
<clipPath id="clip0">
<rect width="219" height="63.553" fill="white"/>
</clipPath>
</defs>
</svg>
