<svg xmlns="http://www.w3.org/2000/svg" xmlns:xlink="http://www.w3.org/1999/xlink" style="display: block !important; height: 0 !important; width: 0 !important;" width="0" height="0">
<defs>
        <clipPath id="tmpl-hh__icon-food_clip0">
            <path d="M0 0h50v50H0z"/>
        </clipPath>
    </defs>
<symbol id="tmpl-hh__icon-arrow-left" viewBox="0 0 36.75 11.046">
    <path d="M.22 4.993a.75.75 0 000 1.06l4.773 4.773a.75.75 0 001.06-1.06L1.811 5.523 6.053 1.28A.75.75 0 004.993.22zm36.53-.22h-36v1.5h36z"/>
</symbol>
<symbol id="tmpl-hh__icon-arrow-right" viewBox="0 0 36.75 11.046">
    <path d="M36.53 6.053a.75.75 0 000-1.06L31.757.22a.75.75 0 00-1.06 1.06l4.242 4.243-4.243 4.243a.75.75 0 001.061 1.06zM0 6.273h36v-1.5H0z"/>
</symbol>
<symbol id="tmpl-hh__icon-food" viewBox="0 0 50 49.916">
    <g transform="translate(0 -.042)" clip-path="url(#tmpl-hh__icon-food_clip0)">
        <path d="M40.598 27.007A21.915 21.915 0 0025 20.546a21.914 21.914 0 00-15.598 6.46c-3.818 3.819-6.062 8.79-6.411 14.128H47.01a21.893 21.893 0 00-6.412-14.127zM42.344 14.899a.477.477 0 01.251.66l-1.574 3.445 2.676 1.222 1.542-3.377a3.43 3.43 0 00.125-2.72 3.43 3.43 0 00-1.928-1.96.481.481 0 01-.29-.551l.848-1.89-2.683-1.205-.919 2.047-.023.07a3.425 3.425 0 001.975 4.259zM31.563 6.42a.476.476 0 01.251.66l-1.574 3.444 2.675 1.222 1.543-3.377a3.43 3.43 0 00.125-2.72 3.43 3.43 0 00-1.928-1.96.48.48 0 01-.29-.55l.848-1.892L30.53.043l-.919 2.048-.023.07a3.425 3.425 0 001.975 4.258zM17.344 6.418c.17.068.243.202.27.276a.476.476 0 01-.019.385l-1.574 3.445 2.675 1.221 1.543-3.377a3.43 3.43 0 00.125-2.72 3.43 3.43 0 00-1.928-1.96.48.48 0 01-.29-.55l.848-1.891L16.311.042l-.919 2.048-.023.07a3.425 3.425 0 001.975 4.258zM6.563 14.359c.17.068.242.202.27.275a.476.476 0 01-.019.386L5.24 18.464l2.675 1.222 1.543-3.377a3.43 3.43 0 00.125-2.72 3.43 3.43 0 00-1.928-1.96.48.48 0 01-.29-.551l.848-1.89L5.53 7.982l-.919 2.047-.023.07a3.425 3.425 0 001.975 4.259zM27.941 17.776v-.172a2.941 2.941 0 00-5.882 0v.172a25.435 25.435 0 015.882 0zM0 44.076h50v5.882H0z"/>
    </g>
    
</symbol>
<symbol id="tmpl-hh__icon-promotion" viewBox="0 0 50 49.999">
    <path d="M35.303 0v11.767H23.535v11.767H11.768v11.768H0v14.697l49.999-.001V0zM8.836.001v2.93H15.6L0 18.53l2.072 2.071 15.6-15.6v6.764h2.93V.001z"/>
</symbol>
<symbol id="tmpl-hh__icon-suitcase" viewBox="0 0 50 43.864">
    <path d="M16.465 7.544V6.372a3.446 3.446 0 013.442-3.442h10.186a3.446 3.446 0 013.443 3.442v1.172h2.93V6.372A6.38 6.38 0 0030.092 0H19.907a6.38 6.38 0 00-6.372 6.372v1.172zM44.821 26.355l-14.457 5.119v.467A5.37 5.37 0 0125 37.305a5.37 5.37 0 01-5.364-5.364v-.467L5.18 26.355a12.114 12.114 0 01-3.527-1.964v19.473h46.696V24.391a12.115 12.115 0 01-3.527 1.964z"/>
    <path d="M0 10.474v4.408a9.242 9.242 0 006.157 8.712l13.479 4.773v-4.018h10.728v4.017l13.479-4.772A9.242 9.242 0 0050 14.882v-4.408z"/>
    <path d="M27.434 27.279h-4.868v4.662c0 1.342 1.092 2.434 2.434 2.434s2.434-1.092 2.434-2.434z"/>
</symbol>
<symbol id="tmpl-hh__icon-users" viewBox="0 0 50 42.077">
    <path d="M30.173 7.222c2.312 1.45 3.933 3.902 4.228 6.75.943.44 1.99.694 3.099.694A7.333 7.333 0 1037.5 0a7.333 7.333 0 00-7.327 7.222zm-4.804 15.014a7.333 7.333 0 100-14.665 7.334 7.334 0 100 14.665zm3.11.5h-6.222c-5.177 0-9.389 4.212-9.389 9.39v7.61l.02.118.523.164c4.941 1.544 9.234 2.059 12.767 2.059 6.9 0 10.9-1.968 11.147-2.093l.49-.248h.052v-7.61c.002-5.178-4.21-9.39-9.388-9.39zm12.133-7.57h-6.175a9.037 9.037 0 01-2.789 6.294c4.602 1.369 7.969 5.636 7.969 10.676v2.345c6.096-.223 9.61-1.95 9.84-2.067l.49-.248H50v-7.612c0-5.177-4.212-9.389-9.389-9.389zm-28.11-.5c1.434 0 2.769-.418 3.9-1.131a9.075 9.075 0 013.41-5.788c.008-.138.021-.274.021-.412a7.333 7.333 0 10-7.331 7.332zm6.585 6.794A9.042 9.042 0 0116.3 15.2c-.23-.016-.456-.034-.69-.034H9.39c-5.177 0-9.39 4.212-9.39 9.388v7.61l.02.118.524.166c3.964 1.237 7.501 1.807 10.573 1.987v-2.298c.002-5.04 3.367-9.307 7.97-10.676z"/>
</symbol>
</svg>